<?xml version="1.0" encoding="utf-8"?>
<!-- Generator: Adobe Illustrator 24.1.2, SVG Export Plug-In . SVG Version: 6.00 Build 0)  -->
<svg version="1.1" id="Layer_1" xmlns="http://www.w3.org/2000/svg" xmlns:xlink="http://www.w3.org/1999/xlink" x="0px" y="0px"
	 viewBox="0 0 99.74 76.66" style="enable-background:new 0 0 99.74 76.66;" xml:space="preserve">
<style type="text/css">
	.st0{fill:#E8E8E8;}
	.st1{fill:#4FA0F7;}
	.st2{fill:#333333;}
	.st3{fill:#4B4D4F;}
	.st4{fill:#EAEDEF;}
	.st5{fill:#05416D;}
	.st6{fill:#EF2929;}
	.st7{fill:#FFFFFF;}
	.st8{fill:none;stroke:#FFFFFF;stroke-miterlimit:10;}
	.st9{fill:#FFFFFF;stroke:#BCBBBB;stroke-width:0.5387;stroke-miterlimit:10;}
	.st10{fill:none;stroke:#999999;stroke-miterlimit:10;}
	.st11{fill:none;stroke:#BCBBBB;stroke-width:0.5;stroke-miterlimit:10;}
	.st12{fill:#FFFFFF;stroke:#B7B7B7;stroke-width:0.5;stroke-miterlimit:10;}
	.st13{fill:none;stroke:#05416D;stroke-width:0.75;stroke-miterlimit:10;}
	.st14{fill:#26A2ED;}
	.st15{fill:#EA8D28;}
	.st16{fill:#4BC94E;}
	.st17{fill:#EA3228;}
	.st18{fill:#7E3699;}
	.st19{fill:#2349B5;}
	.st20{fill:#EAD228;}
	.st21{fill:#F29CDB;}
	.st22{fill:none;stroke:#4FA0F7;stroke-width:0.75;stroke-linecap:round;stroke-miterlimit:10;}
	.st23{fill:#0D5093;}
	.st24{fill:#1861AA;}
	.st25{fill:#6ECBF4;}
	.st26{fill:#CE2929;}
	.st27{fill:#D5D5D5;}
	.st28{fill:#FFFFFF;stroke:#4FA0F7;stroke-width:1.3269;stroke-miterlimit:10;}
	.st29{fill:none;stroke:#4FA0F7;stroke-width:1.5;stroke-miterlimit:10;}
	.st30{fill:none;stroke:#999999;stroke-width:0.5;stroke-miterlimit:10;}
	.st31{fill:none;stroke:#BCBBBB;stroke-width:0.8902;stroke-miterlimit:10;}
	.st32{fill:none;stroke:#FFFFFF;stroke-linecap:round;stroke-miterlimit:10;}
	.st33{fill:#37B749;}
	.st34{fill:none;stroke:#BCBBBB;stroke-width:0.7101;stroke-miterlimit:10;}
	.st35{fill:none;stroke:#FFFFFF;stroke-width:0.6715;stroke-miterlimit:10;}
	.st36{fill:#477DDD;}
	.st37{fill:#E2AC24;}
	.st38{fill:#999999;}
	.st39{fill:#E22B2B;}
	.st40{fill:none;stroke:#FFFFFF;stroke-width:0.9377;stroke-linecap:round;stroke-miterlimit:10;}
	.st41{opacity:0.8;fill:#FFFFFF;}
	.st42{fill:#1CB750;}
	.st43{fill:#DBDCDD;}
	.st44{fill:#EAECEF;}
	.st45{fill:none;stroke:#999999;stroke-width:0.616;stroke-miterlimit:10;}
	.st46{fill:none;stroke:#999999;stroke-width:0.352;stroke-miterlimit:10;}
	.st47{fill:none;stroke:#999999;stroke-width:0.4796;stroke-miterlimit:10;}
	.st48{fill:none;stroke:#999999;stroke-width:0.6391;stroke-miterlimit:10;}
	.st49{fill:none;stroke:#999999;stroke-width:0.4136;stroke-miterlimit:10;}
	.st50{fill:none;stroke:#BCBBBB;stroke-width:0.5274;stroke-miterlimit:10;}
	.st51{fill:none;stroke:#4FA0F7;stroke-width:2;stroke-miterlimit:10;}
	.st52{fill:#FFFFFF;stroke:#4FA0F7;stroke-miterlimit:10;}
	.st53{fill:none;stroke:#A8A8A8;stroke-miterlimit:10;}
	.st54{fill:#4FA0F7;stroke:#FFFFFF;stroke-width:0.8762;stroke-miterlimit:10;}
	.st55{opacity:0.25;}
	.st56{fill:none;stroke:#999999;stroke-width:1.5;stroke-linecap:round;stroke-miterlimit:10;}
	.st57{fill:none;stroke:#DB1919;stroke-miterlimit:10;}
	.st58{fill:none;stroke:#AAAAAA;stroke-width:1.7924;stroke-linecap:round;stroke-miterlimit:10;}
	.st59{fill:none;stroke:#AAAAAA;stroke-width:1.5152;stroke-miterlimit:10;}
	.st60{fill:#05416D;stroke:#FFFFFF;stroke-width:0.6872;stroke-miterlimit:10;}
	.st61{fill:#EDC82B;}
	.st62{fill:none;stroke:#999999;stroke-width:0.5809;stroke-miterlimit:10;}
	.st63{fill:none;stroke:#999999;stroke-width:0.5404;stroke-miterlimit:10;}
	.st64{fill:none;stroke:#999999;stroke-width:0.7028;stroke-miterlimit:10;}
	.st65{fill:none;stroke:#999999;stroke-width:0.4501;stroke-miterlimit:10;}
	.st66{opacity:0.4;}
	.st67{fill:none;stroke:#4B4D4F;stroke-miterlimit:10;}
	.st68{fill:none;stroke:#A4A4A5;stroke-miterlimit:10;}
	.st69{fill:none;stroke:#CCCCCC;stroke-width:5;stroke-linecap:round;stroke-miterlimit:10;}
	.st70{fill:#C9C9C9;}
	.st71{font-family:'Avenir-Medium';}
	.st72{font-size:10.3696px;}
	.st73{fill:none;stroke:#999999;stroke-width:5;stroke-miterlimit:10;}
	.st74{fill:none;stroke:#999999;stroke-width:5;stroke-linecap:round;stroke-miterlimit:10;}
	.st75{fill:#FFFFFF;stroke:#999999;stroke-width:4.8441;stroke-linecap:round;stroke-miterlimit:10;}
	.st76{fill:#FFFFFF;stroke:#999999;stroke-width:5;stroke-linecap:round;stroke-miterlimit:10;}
	.st77{opacity:0.15;}
	.st78{opacity:0.15;fill:#477DDD;}
	.st79{opacity:0.15;fill:#37B749;}
	.st80{opacity:0.25;fill:#37B749;}
	.st81{opacity:0.25;fill:#477DDD;}
	.st82{fill:none;stroke:#4FA0F7;stroke-width:5;stroke-miterlimit:10;}
	.st83{fill:none;stroke:#DB1919;stroke-width:5;stroke-miterlimit:10;}
	.st84{fill:none;stroke:#4FA0F7;stroke-width:5;stroke-linecap:round;stroke-miterlimit:10;}
	.st85{fill:none;stroke:#1CB750;stroke-width:5;stroke-miterlimit:10;}
	.st86{fill:none;stroke:#1CB750;stroke-width:5;stroke-linecap:round;stroke-miterlimit:10;}
	.st87{fill:#DB1919;}
	.st88{fill:none;stroke:#05416D;stroke-width:5;stroke-linecap:round;stroke-miterlimit:10;}
	.st89{fill:none;stroke:#05416D;stroke-width:1.2656;stroke-linecap:round;stroke-miterlimit:10;}
	.st90{fill:none;stroke:#EDC82B;stroke-width:5;stroke-miterlimit:10;}
	.st91{fill:none;stroke:#EDC82B;stroke-width:5;stroke-linecap:round;stroke-miterlimit:10;}
	.st92{fill:none;stroke:#797A7A;stroke-width:0.25;stroke-miterlimit:10;}
	.st93{fill:none;stroke:#FFFFFF;stroke-width:0.9556;stroke-linecap:round;stroke-miterlimit:10;}
	.st94{fill:#E2BD23;}
	.st95{fill:#E03624;}
	.st96{fill:none;stroke:#4FA0F7;stroke-width:0.75;stroke-miterlimit:10;}
	.st97{fill:none;stroke:#4FA0F7;stroke-width:0.8498;stroke-miterlimit:10;}
	.st98{fill:none;stroke:#4FA0F7;stroke-width:0.6693;stroke-miterlimit:10;}
	.st99{fill:#E2E2E2;}
	.st100{fill:none;stroke:#4FA0F7;stroke-width:0.5;stroke-miterlimit:10;}
	.st101{opacity:0.1;}
	.st102{fill:none;stroke:#FFFFFF;stroke-width:3;stroke-linecap:round;stroke-miterlimit:10;}
	.st103{fill:none;stroke:#4FA0F7;stroke-width:1.4167;stroke-miterlimit:10;}
	.st104{fill:none;stroke:#FFFFFF;stroke-width:0.8019;stroke-linecap:round;stroke-miterlimit:10;}
	.st105{fill:none;stroke:#FFFFFF;stroke-width:0.649;stroke-linecap:round;stroke-miterlimit:10;}
	.st106{fill:none;stroke:#4FA0F7;stroke-width:0.25;stroke-miterlimit:10;}
	.st107{fill:none;stroke:#DDDDDD;stroke-width:0.75;stroke-miterlimit:10;}
	.st108{fill:#DDDDDD;}
	.st109{fill:#777777;}
	.st110{fill:none;stroke:#E2AC24;stroke-width:0.5;stroke-miterlimit:10;}
	.st111{fill:none;stroke:#3DB54A;stroke-width:0.5;stroke-miterlimit:10;}
	.st112{fill:none;stroke:#477DDD;stroke-width:0.5;stroke-miterlimit:10;}
	.st113{fill:none;stroke:#E22B2B;stroke-width:0.5;stroke-miterlimit:10;}
</style>
<text transform="matrix(1 0 0 1 22.6889 58.5296)" class="st38 st71 st72">Occupation</text>
<g>
	<path class="st38" d="M61.16,27.78V38.3c0,0.08-0.06,0.14-0.14,0.14H38.71c-0.08,0-0.14-0.06-0.14-0.14V27.78H61.16 M62.33,26.62
		H37.41V38.3c0,0.72,0.58,1.3,1.3,1.3h22.32c0.72,0,1.3-0.58,1.3-1.3V26.62L62.33,26.62z"/>
	<path class="st38" d="M53.17,13.8c0.24,0,0.44,0.2,0.44,0.44v1.85h-7.49v-1.85c0-0.24,0.2-0.44,0.44-0.44H53.17 M53.17,12.64h-6.6
		c-0.89,0-1.61,0.72-1.61,1.61v3.02h9.81v-3.02C54.77,13.36,54.06,12.64,53.17,12.64L53.17,12.64z"/>
	<g>
		<path class="st7" d="M62.03,28.18c-3.42,0.58-7.52,1.02-12.16,1.02c-3.46,0-7.58-0.25-12.16-1.02c-0.09,0-0.55-0.01-0.93-0.39
			c-0.24-0.24-0.39-0.57-0.39-0.93v-9.44c0-0.73,0.59-1.32,1.32-1.32h24.33c0.73,0,1.32,0.59,1.32,1.32v9.44
			C63.35,27.59,62.76,28.18,62.03,28.18z"/>
		<path class="st38" d="M62.03,17.27c0.09,0,0.16,0.07,0.16,0.16v9.44c0,0.09-0.07,0.16-0.16,0.16h-0.1l-0.1,0.02
			c-3.94,0.67-7.97,1.01-11.97,1.01c-4,0-8.03-0.34-11.97-1.01l-0.09-0.02h-0.1c0,0-0.07,0-0.11-0.05
			c-0.03-0.03-0.05-0.07-0.05-0.11v-9.44c0-0.09,0.07-0.16,0.16-0.16H62.03 M62.03,16.11H37.7c-0.73,0-1.32,0.59-1.32,1.32v9.44
			c0,0.36,0.15,0.69,0.39,0.93c0.38,0.38,0.84,0.39,0.93,0.39c4.58,0.78,8.7,1.02,12.16,1.02c4.65,0,8.75-0.44,12.16-1.02
			c0.73,0,1.32-0.59,1.32-1.32v-9.44C63.35,16.7,62.76,16.11,62.03,16.11L62.03,16.11z"/>
	</g>
	<g>
		<path class="st7" d="M51.6,31.02h-3.47c-0.24,0-0.43-0.19-0.43-0.43v-2.75c0-0.24,0.19-0.43,0.43-0.43h3.47
			c0.24,0,0.43,0.19,0.43,0.43v2.75C52.04,30.82,51.84,31.02,51.6,31.02z"/>
		<path class="st38" d="M50.88,28.56v1.3h-2.01v-1.3H50.88 M51.6,27.39h-3.47c-0.24,0-0.43,0.19-0.43,0.43v2.75
			c0,0.24,0.19,0.43,0.43,0.43h3.47c0.24,0,0.43-0.19,0.43-0.43v-2.75C52.04,27.59,51.84,27.39,51.6,27.39L51.6,27.39z"/>
	</g>
	<path class="st38" d="M54.03,23.14h-8.07c-0.32,0-0.58-0.26-0.58-0.58s0.26-0.58,0.58-0.58h8.07c0.32,0,0.58,0.26,0.58,0.58
		S54.35,23.14,54.03,23.14z"/>
	<g>
		<path class="st7" d="M61.71,33.24c-0.27-0.02-0.5-0.21-0.56-0.48c0,0.38,0,0.76,0,1.14c0,0.2,0,0.4,0,0.6c0,0.38,0,0.76,0,1.14
			c0.06-0.27,0.29-0.46,0.56-0.48c0.29-0.02,0.56,0.18,0.64,0.48v-1.14v-0.6v-1.14C62.28,33.05,62,33.25,61.71,33.24z"/>
	</g>
	<g>
		<path class="st7" d="M41.17,16.1c-0.38,0-0.76,0-1.14,0c0.27,0.06,0.46,0.29,0.48,0.56c0.02,0.29-0.18,0.56-0.48,0.64h1.14h0.6
			h1.14c-0.3-0.07-0.5-0.34-0.48-0.64c0.02-0.27,0.21-0.5,0.48-0.56"/>
	</g>
</g>
<rect x="0" y="0.11" class="st41" width="99.74" height="76.66"/>
<g>
	<circle class="st42" cx="89.68" cy="10.57" r="4.93"/>
	<polyline class="st105" points="86.85,10.69 88.66,12.5 92.51,8.64 	"/>
</g>
</svg>
