<?xml version="1.0" encoding="utf-8"?>
<!-- Generator: Adobe Illustrator 24.1.2, SVG Export Plug-In . SVG Version: 6.00 Build 0)  -->
<svg version="1.1" id="Layer_1" xmlns="http://www.w3.org/2000/svg" xmlns:xlink="http://www.w3.org/1999/xlink" x="0px" y="0px"
	 viewBox="0 0 99.74 76.55" style="enable-background:new 0 0 99.74 76.55;" xml:space="preserve">
<style type="text/css">
	.st0{fill:#E8E8E8;}
	.st1{fill:#4FA0F7;}
	.st2{fill:#333333;}
	.st3{fill:#4B4D4F;}
	.st4{fill:#EAEDEF;}
	.st5{fill:#05416D;}
	.st6{fill:#EF2929;}
	.st7{fill:#FFFFFF;}
	.st8{fill:none;stroke:#FFFFFF;stroke-miterlimit:10;}
	.st9{fill:#FFFFFF;stroke:#BCBBBB;stroke-width:0.5387;stroke-miterlimit:10;}
	.st10{fill:none;stroke:#999999;stroke-miterlimit:10;}
	.st11{fill:none;stroke:#BCBBBB;stroke-width:0.5;stroke-miterlimit:10;}
	.st12{fill:#FFFFFF;stroke:#B7B7B7;stroke-width:0.5;stroke-miterlimit:10;}
	.st13{fill:none;stroke:#05416D;stroke-width:0.75;stroke-miterlimit:10;}
	.st14{fill:#26A2ED;}
	.st15{fill:#EA8D28;}
	.st16{fill:#4BC94E;}
	.st17{fill:#EA3228;}
	.st18{fill:#7E3699;}
	.st19{fill:#2349B5;}
	.st20{fill:#EAD228;}
	.st21{fill:#F29CDB;}
	.st22{fill:none;stroke:#4FA0F7;stroke-width:0.75;stroke-linecap:round;stroke-miterlimit:10;}
	.st23{fill:#0D5093;}
	.st24{fill:#1861AA;}
	.st25{fill:#6ECBF4;}
	.st26{fill:#CE2929;}
	.st27{fill:#D5D5D5;}
	.st28{fill:#FFFFFF;stroke:#4FA0F7;stroke-width:1.3269;stroke-miterlimit:10;}
	.st29{fill:none;stroke:#4FA0F7;stroke-width:1.5;stroke-miterlimit:10;}
	.st30{fill:none;stroke:#999999;stroke-width:0.5;stroke-miterlimit:10;}
	.st31{fill:none;stroke:#BCBBBB;stroke-width:0.8902;stroke-miterlimit:10;}
	.st32{fill:none;stroke:#FFFFFF;stroke-linecap:round;stroke-miterlimit:10;}
	.st33{fill:#37B749;}
	.st34{fill:none;stroke:#BCBBBB;stroke-width:0.7101;stroke-miterlimit:10;}
	.st35{fill:none;stroke:#FFFFFF;stroke-width:0.6715;stroke-miterlimit:10;}
	.st36{fill:#477DDD;}
	.st37{fill:#E2AC24;}
	.st38{fill:#999999;}
	.st39{fill:#E22B2B;}
	.st40{fill:none;stroke:#FFFFFF;stroke-width:0.9377;stroke-linecap:round;stroke-miterlimit:10;}
	.st41{opacity:0.8;fill:#FFFFFF;}
	.st42{fill:#1CB750;}
	.st43{fill:#DBDCDD;}
	.st44{fill:#EAECEF;}
	.st45{fill:none;stroke:#999999;stroke-width:0.616;stroke-miterlimit:10;}
	.st46{fill:none;stroke:#999999;stroke-width:0.352;stroke-miterlimit:10;}
	.st47{fill:none;stroke:#999999;stroke-width:0.4796;stroke-miterlimit:10;}
	.st48{fill:none;stroke:#999999;stroke-width:0.6391;stroke-miterlimit:10;}
	.st49{fill:none;stroke:#999999;stroke-width:0.4136;stroke-miterlimit:10;}
	.st50{fill:none;stroke:#BCBBBB;stroke-width:0.5274;stroke-miterlimit:10;}
	.st51{fill:none;stroke:#4FA0F7;stroke-width:2;stroke-miterlimit:10;}
	.st52{fill:#FFFFFF;stroke:#4FA0F7;stroke-miterlimit:10;}
	.st53{fill:none;stroke:#A8A8A8;stroke-miterlimit:10;}
	.st54{fill:#4FA0F7;stroke:#FFFFFF;stroke-width:0.8762;stroke-miterlimit:10;}
	.st55{opacity:0.25;}
	.st56{fill:none;stroke:#999999;stroke-width:1.5;stroke-linecap:round;stroke-miterlimit:10;}
	.st57{fill:none;stroke:#DB1919;stroke-miterlimit:10;}
	.st58{fill:none;stroke:#AAAAAA;stroke-width:1.7924;stroke-linecap:round;stroke-miterlimit:10;}
	.st59{fill:none;stroke:#AAAAAA;stroke-width:1.5152;stroke-miterlimit:10;}
	.st60{fill:#05416D;stroke:#FFFFFF;stroke-width:0.6872;stroke-miterlimit:10;}
	.st61{fill:#EDC82B;}
	.st62{fill:none;stroke:#999999;stroke-width:0.5809;stroke-miterlimit:10;}
	.st63{fill:none;stroke:#999999;stroke-width:0.5404;stroke-miterlimit:10;}
	.st64{fill:none;stroke:#999999;stroke-width:0.7028;stroke-miterlimit:10;}
	.st65{fill:none;stroke:#999999;stroke-width:0.4501;stroke-miterlimit:10;}
	.st66{opacity:0.4;}
	.st67{fill:none;stroke:#4B4D4F;stroke-miterlimit:10;}
	.st68{fill:none;stroke:#A4A4A5;stroke-miterlimit:10;}
	.st69{fill:none;stroke:#CCCCCC;stroke-width:5;stroke-linecap:round;stroke-miterlimit:10;}
	.st70{fill:#C9C9C9;}
	.st71{font-family:'Avenir-Medium';}
	.st72{font-size:10.3696px;}
	.st73{fill:none;stroke:#999999;stroke-width:5;stroke-miterlimit:10;}
	.st74{fill:none;stroke:#999999;stroke-width:5;stroke-linecap:round;stroke-miterlimit:10;}
	.st75{fill:#FFFFFF;stroke:#999999;stroke-width:4.8441;stroke-linecap:round;stroke-miterlimit:10;}
	.st76{fill:#FFFFFF;stroke:#999999;stroke-width:5;stroke-linecap:round;stroke-miterlimit:10;}
	.st77{opacity:0.15;}
	.st78{opacity:0.15;fill:#477DDD;}
	.st79{opacity:0.15;fill:#37B749;}
	.st80{opacity:0.25;fill:#37B749;}
	.st81{opacity:0.25;fill:#477DDD;}
	.st82{fill:none;stroke:#4FA0F7;stroke-width:5;stroke-miterlimit:10;}
	.st83{fill:none;stroke:#DB1919;stroke-width:5;stroke-miterlimit:10;}
	.st84{fill:none;stroke:#4FA0F7;stroke-width:5;stroke-linecap:round;stroke-miterlimit:10;}
	.st85{fill:none;stroke:#1CB750;stroke-width:5;stroke-miterlimit:10;}
	.st86{fill:none;stroke:#1CB750;stroke-width:5;stroke-linecap:round;stroke-miterlimit:10;}
	.st87{fill:#DB1919;}
	.st88{fill:none;stroke:#05416D;stroke-width:5;stroke-linecap:round;stroke-miterlimit:10;}
	.st89{fill:none;stroke:#05416D;stroke-width:1.2656;stroke-linecap:round;stroke-miterlimit:10;}
	.st90{fill:none;stroke:#EDC82B;stroke-width:5;stroke-miterlimit:10;}
	.st91{fill:none;stroke:#EDC82B;stroke-width:5;stroke-linecap:round;stroke-miterlimit:10;}
	.st92{fill:none;stroke:#797A7A;stroke-width:0.25;stroke-miterlimit:10;}
	.st93{fill:none;stroke:#FFFFFF;stroke-width:0.9556;stroke-linecap:round;stroke-miterlimit:10;}
	.st94{fill:#E2BD23;}
	.st95{fill:#E03624;}
	.st96{fill:none;stroke:#4FA0F7;stroke-width:0.75;stroke-miterlimit:10;}
	.st97{fill:none;stroke:#4FA0F7;stroke-width:0.8498;stroke-miterlimit:10;}
	.st98{fill:none;stroke:#4FA0F7;stroke-width:0.6693;stroke-miterlimit:10;}
	.st99{fill:#E2E2E2;}
	.st100{fill:none;stroke:#4FA0F7;stroke-width:0.5;stroke-miterlimit:10;}
	.st101{opacity:0.1;}
	.st102{fill:none;stroke:#FFFFFF;stroke-width:3;stroke-linecap:round;stroke-miterlimit:10;}
	.st103{fill:none;stroke:#4FA0F7;stroke-width:1.4167;stroke-miterlimit:10;}
	.st104{fill:none;stroke:#FFFFFF;stroke-width:0.8019;stroke-linecap:round;stroke-miterlimit:10;}
	.st105{fill:none;stroke:#FFFFFF;stroke-width:0.649;stroke-linecap:round;stroke-miterlimit:10;}
	.st106{fill:none;stroke:#4FA0F7;stroke-width:0.25;stroke-miterlimit:10;}
	.st107{fill:none;stroke:#DDDDDD;stroke-width:0.75;stroke-miterlimit:10;}
	.st108{fill:#DDDDDD;}
	.st109{fill:#777777;}
	.st110{fill:none;stroke:#E2AC24;stroke-width:0.5;stroke-miterlimit:10;}
	.st111{fill:none;stroke:#3DB54A;stroke-width:0.5;stroke-miterlimit:10;}
	.st112{fill:none;stroke:#477DDD;stroke-width:0.5;stroke-miterlimit:10;}
	.st113{fill:none;stroke:#E22B2B;stroke-width:0.5;stroke-miterlimit:10;}
</style>
<text transform="matrix(1 0 0 1 34.1997 58.4246)" class="st38 st71 st72">School</text>
<g>
	<path class="st38" d="M62.13,24.01c0.03,0,0.05,0.02,0.05,0.05v14.26H37.55V24.07c0-0.03,0.02-0.05,0.05-0.05H62.13 M62.13,22.85
		H37.6c-0.67,0-1.21,0.54-1.21,1.21v15.42h26.96V24.07C63.35,23.4,62.81,22.85,62.13,22.85L62.13,22.85z"/>
	<rect x="49.29" y="12.52" class="st38" width="1.16" height="4.83"/>
	<path class="st38" d="M53.93,13.68v1.15h-3.46v-1.15H53.93 M54.52,12.52h-5.21v3.47h5.21c0.31,0,0.57-0.26,0.57-0.57v-2.33
		C55.09,12.78,54.83,12.52,54.52,12.52L54.52,12.52z"/>
	<g>
		<path class="st7" d="M50.53,17.12c-0.36-0.4-0.98-0.4-1.33,0l-5.13,5.73v16.63h11.6V22.85L50.53,17.12z"/>
		<path class="st38" d="M49.87,18.12l4.64,5.18v15.03h-9.28V23.3L49.87,18.12 M49.87,16.83c-0.24,0-0.49,0.1-0.67,0.3l-5.13,5.73
			v16.63h11.6V22.85l-5.13-5.73C50.36,16.93,50.11,16.83,49.87,16.83L49.87,16.83z"/>
	</g>
	<path class="st38" d="M49.87,23.61c1.16,0,2.1,0.94,2.1,2.1s-0.94,2.1-2.1,2.1s-2.1-0.94-2.1-2.1S48.71,23.61,49.87,23.61
		 M49.87,22.44c-1.8,0-3.26,1.46-3.26,3.26s1.46,3.26,3.26,3.26c1.8,0,3.26-1.46,3.26-3.26S51.67,22.44,49.87,22.44L49.87,22.44z"/>
	<path class="st38" d="M51.41,33.13v5.19h-3.07v-5.19H51.41 M51.55,31.97h-3.37c-0.56,0-1.02,0.46-1.02,1.02v6.5h5.4v-6.5
		C52.57,32.43,52.11,31.97,51.55,31.97L51.55,31.97z"/>
	<g>
		<path class="st7" d="M60.73,30.4h-3.47c-0.24,0-0.43-0.19-0.43-0.43v-2.75c0-0.24,0.19-0.43,0.43-0.43h3.47
			c0.24,0,0.43,0.19,0.43,0.43v2.75C61.17,30.21,60.97,30.4,60.73,30.4z"/>
		<path class="st38" d="M60,27.94v1.3h-2.01v-1.3H60 M60.73,26.78h-3.47c-0.24,0-0.43,0.19-0.43,0.43v2.75
			c0,0.24,0.19,0.43,0.43,0.43h3.47c0.24,0,0.43-0.19,0.43-0.43v-2.75C61.17,26.98,60.97,26.78,60.73,26.78L60.73,26.78z"/>
	</g>
	<g>
		<path class="st7" d="M60.73,35.89h-3.47c-0.24,0-0.43-0.19-0.43-0.43V32.7c0-0.24,0.19-0.43,0.43-0.43h3.47
			c0.24,0,0.43,0.19,0.43,0.43v2.75C61.17,35.69,60.97,35.89,60.73,35.89z"/>
		<path class="st38" d="M60,33.43v1.3h-2.01v-1.3H60 M60.73,32.27h-3.47c-0.24,0-0.43,0.19-0.43,0.43v2.75
			c0,0.24,0.19,0.43,0.43,0.43h3.47c0.24,0,0.43-0.19,0.43-0.43V32.7C61.17,32.46,60.97,32.27,60.73,32.27L60.73,32.27z"/>
	</g>
	<g>
		<path class="st38" d="M41.8,27.94v1.3h-2.01v-1.3H41.8 M42.53,26.78h-3.47c-0.24,0-0.43,0.19-0.43,0.44v2.75
			c0,0.24,0.19,0.44,0.43,0.44h3.47c0.24,0,0.44-0.19,0.44-0.44v-2.75C42.96,26.98,42.77,26.78,42.53,26.78L42.53,26.78z"/>
	</g>
	<g>
		<path class="st38" d="M41.8,33.43v1.3h-2.01v-1.3H41.8 M42.53,32.27h-3.47c-0.24,0-0.43,0.19-0.43,0.44v2.75
			c0,0.24,0.19,0.44,0.43,0.44h3.47c0.24,0,0.44-0.19,0.44-0.44V32.7C42.96,32.46,42.77,32.27,42.53,32.27L42.53,32.27z"/>
	</g>
	<g>
		<path class="st7" d="M55.05,27.8c-0.27-0.02-0.5-0.21-0.56-0.48c0,0.38,0,0.76,0,1.14c0,0.2,0,0.4,0,0.6c0,0.38,0,0.76,0,1.14
			c0.06-0.27,0.29-0.46,0.56-0.48c0.29-0.02,0.56,0.18,0.64,0.48v-1.14v-0.6v-1.14C55.61,27.61,55.34,27.81,55.05,27.8z"/>
	</g>
	<g>
		<path class="st7" d="M42.07,38.87c0.02-0.27,0.21-0.5,0.48-0.56c-0.38,0-0.76,0-1.14,0c-0.2,0-0.4,0-0.6,0c-0.38,0-0.76,0-1.14,0
			c0.27,0.06,0.46,0.29,0.48,0.56c0.02,0.29-0.18,0.56-0.48,0.64h1.14h0.6h1.14C42.25,39.44,42.05,39.16,42.07,38.87z"/>
	</g>
</g>
</svg>
