<?xml version="1.0" encoding="utf-8"?>
<!-- Generator: Adobe Illustrator 24.1.2, SVG Export Plug-In . SVG Version: 6.00 Build 0)  -->
<svg version="1.1" id="Layer_1" xmlns="http://www.w3.org/2000/svg" xmlns:xlink="http://www.w3.org/1999/xlink" x="0px" y="0px"
	 viewBox="0 0 99.74 76.55" style="enable-background:new 0 0 99.74 76.55;" xml:space="preserve">
<style type="text/css">
	.st0{fill:#E8E8E8;}
	.st1{fill:#4FA0F7;}
	.st2{fill:#333333;}
	.st3{fill:#4B4D4F;}
	.st4{fill:#EAEDEF;}
	.st5{fill:#05416D;}
	.st6{fill:#EF2929;}
	.st7{fill:#FFFFFF;}
	.st8{fill:none;stroke:#FFFFFF;stroke-miterlimit:10;}
	.st9{fill:#FFFFFF;stroke:#BCBBBB;stroke-width:0.5387;stroke-miterlimit:10;}
	.st10{fill:none;stroke:#999999;stroke-miterlimit:10;}
	.st11{fill:none;stroke:#BCBBBB;stroke-width:0.5;stroke-miterlimit:10;}
	.st12{fill:#FFFFFF;stroke:#B7B7B7;stroke-width:0.5;stroke-miterlimit:10;}
	.st13{fill:none;stroke:#05416D;stroke-width:0.75;stroke-miterlimit:10;}
	.st14{fill:#26A2ED;}
	.st15{fill:#EA8D28;}
	.st16{fill:#4BC94E;}
	.st17{fill:#EA3228;}
	.st18{fill:#7E3699;}
	.st19{fill:#2349B5;}
	.st20{fill:#EAD228;}
	.st21{fill:#F29CDB;}
	.st22{fill:none;stroke:#4FA0F7;stroke-width:0.75;stroke-linecap:round;stroke-miterlimit:10;}
	.st23{fill:#0D5093;}
	.st24{fill:#1861AA;}
	.st25{fill:#6ECBF4;}
	.st26{fill:#CE2929;}
	.st27{fill:#D5D5D5;}
	.st28{fill:#FFFFFF;stroke:#4FA0F7;stroke-width:1.3269;stroke-miterlimit:10;}
	.st29{fill:none;stroke:#4FA0F7;stroke-width:1.5;stroke-miterlimit:10;}
	.st30{fill:none;stroke:#999999;stroke-width:0.5;stroke-miterlimit:10;}
	.st31{fill:none;stroke:#BCBBBB;stroke-width:0.8902;stroke-miterlimit:10;}
	.st32{fill:none;stroke:#FFFFFF;stroke-linecap:round;stroke-miterlimit:10;}
	.st33{fill:#37B749;}
	.st34{fill:none;stroke:#BCBBBB;stroke-width:0.7101;stroke-miterlimit:10;}
	.st35{fill:none;stroke:#FFFFFF;stroke-width:0.6715;stroke-miterlimit:10;}
	.st36{fill:#477DDD;}
	.st37{fill:#E2AC24;}
	.st38{fill:#999999;}
	.st39{fill:#E22B2B;}
	.st40{fill:none;stroke:#FFFFFF;stroke-width:0.9377;stroke-linecap:round;stroke-miterlimit:10;}
	.st41{opacity:0.8;fill:#FFFFFF;}
	.st42{fill:#1CB750;}
	.st43{fill:#DBDCDD;}
	.st44{fill:#EAECEF;}
	.st45{fill:none;stroke:#999999;stroke-width:0.616;stroke-miterlimit:10;}
	.st46{fill:none;stroke:#999999;stroke-width:0.352;stroke-miterlimit:10;}
	.st47{fill:none;stroke:#999999;stroke-width:0.4796;stroke-miterlimit:10;}
	.st48{fill:none;stroke:#999999;stroke-width:0.6391;stroke-miterlimit:10;}
	.st49{fill:none;stroke:#999999;stroke-width:0.4136;stroke-miterlimit:10;}
	.st50{fill:none;stroke:#BCBBBB;stroke-width:0.5274;stroke-miterlimit:10;}
	.st51{fill:none;stroke:#4FA0F7;stroke-width:2;stroke-miterlimit:10;}
	.st52{fill:#FFFFFF;stroke:#4FA0F7;stroke-miterlimit:10;}
	.st53{fill:none;stroke:#A8A8A8;stroke-miterlimit:10;}
	.st54{fill:#4FA0F7;stroke:#FFFFFF;stroke-width:0.8762;stroke-miterlimit:10;}
	.st55{opacity:0.25;}
	.st56{fill:none;stroke:#999999;stroke-width:1.5;stroke-linecap:round;stroke-miterlimit:10;}
	.st57{fill:none;stroke:#DB1919;stroke-miterlimit:10;}
	.st58{fill:none;stroke:#AAAAAA;stroke-width:1.7924;stroke-linecap:round;stroke-miterlimit:10;}
	.st59{fill:none;stroke:#AAAAAA;stroke-width:1.5152;stroke-miterlimit:10;}
	.st60{fill:#05416D;stroke:#FFFFFF;stroke-width:0.6872;stroke-miterlimit:10;}
	.st61{fill:#EDC82B;}
	.st62{fill:none;stroke:#999999;stroke-width:0.5809;stroke-miterlimit:10;}
	.st63{fill:none;stroke:#999999;stroke-width:0.5404;stroke-miterlimit:10;}
	.st64{fill:none;stroke:#999999;stroke-width:0.7028;stroke-miterlimit:10;}
	.st65{fill:none;stroke:#999999;stroke-width:0.4501;stroke-miterlimit:10;}
	.st66{opacity:0.4;}
	.st67{fill:none;stroke:#4B4D4F;stroke-miterlimit:10;}
	.st68{fill:none;stroke:#A4A4A5;stroke-miterlimit:10;}
	.st69{fill:none;stroke:#CCCCCC;stroke-width:5;stroke-linecap:round;stroke-miterlimit:10;}
	.st70{fill:#C9C9C9;}
	.st71{font-family:'Avenir-Medium';}
	.st72{font-size:10.3696px;}
	.st73{fill:none;stroke:#999999;stroke-width:5;stroke-miterlimit:10;}
	.st74{fill:none;stroke:#999999;stroke-width:5;stroke-linecap:round;stroke-miterlimit:10;}
	.st75{fill:#FFFFFF;stroke:#999999;stroke-width:4.8441;stroke-linecap:round;stroke-miterlimit:10;}
	.st76{fill:#FFFFFF;stroke:#999999;stroke-width:5;stroke-linecap:round;stroke-miterlimit:10;}
	.st77{opacity:0.15;}
	.st78{opacity:0.15;fill:#477DDD;}
	.st79{opacity:0.15;fill:#37B749;}
	.st80{opacity:0.25;fill:#37B749;}
	.st81{opacity:0.25;fill:#477DDD;}
	.st82{fill:none;stroke:#4FA0F7;stroke-width:5;stroke-miterlimit:10;}
	.st83{fill:none;stroke:#DB1919;stroke-width:5;stroke-miterlimit:10;}
	.st84{fill:none;stroke:#4FA0F7;stroke-width:5;stroke-linecap:round;stroke-miterlimit:10;}
	.st85{fill:none;stroke:#1CB750;stroke-width:5;stroke-miterlimit:10;}
	.st86{fill:none;stroke:#1CB750;stroke-width:5;stroke-linecap:round;stroke-miterlimit:10;}
	.st87{fill:#DB1919;}
	.st88{fill:none;stroke:#05416D;stroke-width:5;stroke-linecap:round;stroke-miterlimit:10;}
	.st89{fill:none;stroke:#05416D;stroke-width:1.2656;stroke-linecap:round;stroke-miterlimit:10;}
	.st90{fill:none;stroke:#EDC82B;stroke-width:5;stroke-miterlimit:10;}
	.st91{fill:none;stroke:#EDC82B;stroke-width:5;stroke-linecap:round;stroke-miterlimit:10;}
	.st92{fill:none;stroke:#797A7A;stroke-width:0.25;stroke-miterlimit:10;}
	.st93{fill:none;stroke:#FFFFFF;stroke-width:0.9556;stroke-linecap:round;stroke-miterlimit:10;}
	.st94{fill:#E2BD23;}
	.st95{fill:#E03624;}
	.st96{fill:none;stroke:#4FA0F7;stroke-width:0.75;stroke-miterlimit:10;}
	.st97{fill:none;stroke:#4FA0F7;stroke-width:0.8498;stroke-miterlimit:10;}
	.st98{fill:none;stroke:#4FA0F7;stroke-width:0.6693;stroke-miterlimit:10;}
	.st99{fill:#E2E2E2;}
	.st100{fill:none;stroke:#4FA0F7;stroke-width:0.5;stroke-miterlimit:10;}
	.st101{opacity:0.1;}
	.st102{fill:none;stroke:#FFFFFF;stroke-width:3;stroke-linecap:round;stroke-miterlimit:10;}
	.st103{fill:none;stroke:#4FA0F7;stroke-width:1.4167;stroke-miterlimit:10;}
	.st104{fill:none;stroke:#FFFFFF;stroke-width:0.8019;stroke-linecap:round;stroke-miterlimit:10;}
	.st105{fill:none;stroke:#FFFFFF;stroke-width:0.649;stroke-linecap:round;stroke-miterlimit:10;}
	.st106{fill:none;stroke:#4FA0F7;stroke-width:0.25;stroke-miterlimit:10;}
	.st107{fill:none;stroke:#DDDDDD;stroke-width:0.75;stroke-miterlimit:10;}
	.st108{fill:#DDDDDD;}
	.st109{fill:#777777;}
	.st110{fill:none;stroke:#E2AC24;stroke-width:0.5;stroke-miterlimit:10;}
	.st111{fill:none;stroke:#3DB54A;stroke-width:0.5;stroke-miterlimit:10;}
	.st112{fill:none;stroke:#477DDD;stroke-width:0.5;stroke-miterlimit:10;}
	.st113{fill:none;stroke:#E22B2B;stroke-width:0.5;stroke-miterlimit:10;}
</style>
<text transform="matrix(1 0 0 1 36.2368 58.4246)" class="st38 st71 st72">Major</text>
<g>
	<g>
		<path class="st7" d="M62.18,39.49H37.56c-0.65,0-1.17-0.52-1.17-1.17V16.65c0-0.65,0.52-1.17,1.17-1.17h24.62
			c0.65,0,1.17,0.52,1.17,1.17v21.67C63.35,38.96,62.83,39.49,62.18,39.49z"/>
		<path class="st38" d="M62.18,16.64L62.18,16.64v21.68l-24.63-0.01l0.01-21.67H62.18 M62.18,15.48H37.56
			c-0.65,0-1.17,0.52-1.17,1.17v21.67c0,0.65,0.52,1.17,1.17,1.17h24.62c0.65,0,1.17-0.52,1.17-1.17V16.65
			C63.35,16.01,62.83,15.48,62.18,15.48L62.18,15.48z"/>
	</g>
	<g>
		<path class="st7" d="M60.19,13.82c-1.36-0.58-3.28-1.19-5.63-1.29c-1.9-0.09-3.51,0.4-4.69,0.7c-1.18-0.3-2.79-0.78-4.69-0.7
			c-2.34,0.11-4.27,0.71-5.63,1.29c-0.5,0.21-0.82,0.71-0.82,1.27v21.06c0,0.54,0.44,0.96,0.96,0.92c0.39-0.03,0.84-0.07,1.34-0.12
			c3.46-0.34,4.51-0.62,6.28-0.41c0.58,0.07,1.47,0.23,2.55,0.61c1.08-0.38,1.97-0.54,2.55-0.61c1.77-0.22,2.82,0.06,6.28,0.41
			c0.5,0.05,0.96,0.09,1.34,0.12c0.52,0.04,0.96-0.38,0.96-0.92V15.09C61.01,14.53,60.68,14.03,60.19,13.82z"/>
		<path class="st38" d="M54.11,13.68c0.13,0,0.27,0,0.4,0.01c1.79,0.08,3.55,0.48,5.22,1.2c0.07,0.03,0.12,0.11,0.12,0.2v20.79
			c-0.34-0.03-0.69-0.06-1.03-0.1c-0.93-0.09-1.68-0.18-2.33-0.26c-1.16-0.14-2.01-0.23-2.85-0.23c-0.45,0-0.89,0.03-1.36,0.09
			c-0.8,0.1-1.61,0.28-2.41,0.54c-0.8-0.26-1.61-0.44-2.41-0.54c-0.47-0.06-0.9-0.09-1.36-0.09c-0.84,0-1.68,0.1-2.85,0.23
			c-0.66,0.08-1.4,0.16-2.33,0.26c-0.34,0.03-0.69,0.07-1.03,0.1V15.09c0-0.09,0.05-0.17,0.12-0.2c1.68-0.72,3.44-1.12,5.22-1.2
			c0.13-0.01,0.27-0.01,0.4-0.01c1.37,0,2.6,0.32,3.59,0.57c0.13,0.03,0.25,0.06,0.37,0.09l0.29,0.07l0.29-0.07
			c0.12-0.03,0.24-0.06,0.37-0.09C51.51,14,52.73,13.68,54.11,13.68 M54.11,12.52c-1.71,0-3.15,0.43-4.24,0.71
			c-1.09-0.28-2.53-0.71-4.24-0.71c-0.15,0-0.3,0-0.45,0.01c-2.34,0.11-4.27,0.71-5.63,1.29c-0.5,0.21-0.82,0.71-0.82,1.27v21.06
			c0,0.51,0.4,0.92,0.89,0.92c0.02,0,0.05,0,0.08,0c0.39-0.03,0.84-0.07,1.34-0.12c2.61-0.26,3.85-0.48,5.07-0.48
			c0.39,0,0.78,0.02,1.21,0.08c0.58,0.07,1.47,0.23,2.55,0.61c1.08-0.38,1.97-0.54,2.55-0.61c0.43-0.05,0.82-0.08,1.21-0.08
			c1.21,0,2.45,0.22,5.07,0.48c0.5,0.05,0.96,0.09,1.34,0.12c0.03,0,0.05,0,0.08,0c0.49,0,0.89-0.41,0.89-0.92V15.09
			c0-0.56-0.33-1.06-0.82-1.27c-1.36-0.58-3.28-1.19-5.63-1.29C54.41,12.52,54.26,12.52,54.11,12.52L54.11,12.52z"/>
	</g>
	<g>
		<path class="st7" d="M41.27,18.03c0.57-0.15,1.04-0.26,1.36-0.33c1.66-0.35,2.85-0.59,4.23-0.26c0.41,0.1,0.73,0.22,0.92,0.29"/>
		<path class="st38" d="M41.27,18.59c-0.25,0-0.47-0.17-0.54-0.42c-0.08-0.3,0.1-0.61,0.4-0.69c0.46-0.13,0.93-0.24,1.39-0.33
			c1.64-0.35,2.94-0.62,4.47-0.26c0.34,0.08,0.68,0.19,1,0.32c0.29,0.12,0.43,0.45,0.31,0.73c-0.12,0.29-0.45,0.43-0.73,0.31
			c-0.27-0.11-0.55-0.2-0.84-0.27c-1.23-0.29-2.26-0.1-3.98,0.26c-0.44,0.09-0.89,0.2-1.33,0.32
			C41.37,18.58,41.32,18.59,41.27,18.59z"/>
	</g>
	<g>
		<path class="st7" d="M41.27,21.48c0.57-0.15,1.04-0.26,1.36-0.33c1.66-0.35,2.85-0.59,4.23-0.26c0.41,0.1,0.73,0.22,0.92,0.29"/>
		<path class="st38" d="M41.27,22.04c-0.25,0-0.47-0.17-0.54-0.42c-0.08-0.3,0.1-0.61,0.4-0.69c0.46-0.13,0.93-0.24,1.39-0.33
			c1.64-0.35,2.94-0.62,4.47-0.26c0.34,0.08,0.68,0.19,1,0.32c0.29,0.12,0.43,0.45,0.31,0.73c-0.12,0.29-0.45,0.43-0.73,0.31
			c-0.27-0.11-0.55-0.2-0.84-0.27c-1.23-0.29-2.26-0.1-3.98,0.26c-0.44,0.09-0.89,0.2-1.33,0.32
			C41.37,22.03,41.32,22.04,41.27,22.04z"/>
	</g>
	<g>
		<path class="st7" d="M41.27,24.92c0.57-0.15,1.04-0.26,1.36-0.33c1.66-0.35,2.85-0.59,4.23-0.26c0.41,0.1,0.73,0.22,0.92,0.29"/>
		<path class="st38" d="M41.27,25.49c-0.25,0-0.47-0.17-0.54-0.42c-0.08-0.3,0.1-0.61,0.4-0.69c0.46-0.13,0.93-0.24,1.39-0.33
			c1.64-0.35,2.94-0.62,4.47-0.26c0.34,0.08,0.68,0.19,1,0.32c0.29,0.12,0.43,0.45,0.31,0.73c-0.12,0.29-0.45,0.43-0.73,0.31
			c-0.27-0.11-0.55-0.2-0.84-0.27c-1.23-0.29-2.26-0.1-3.98,0.26c-0.44,0.09-0.89,0.2-1.33,0.32
			C41.37,25.48,41.32,25.49,41.27,25.49z"/>
	</g>
	<g>
		<path class="st7" d="M41.27,28.37c0.57-0.15,1.04-0.26,1.36-0.33c1.66-0.35,2.85-0.59,4.23-0.26c0.41,0.1,0.73,0.22,0.92,0.29"/>
		<path class="st38" d="M41.27,28.94c-0.25,0-0.47-0.17-0.54-0.42c-0.08-0.3,0.1-0.61,0.4-0.69c0.46-0.13,0.93-0.24,1.39-0.33
			c1.64-0.35,2.94-0.62,4.47-0.26c0.34,0.08,0.68,0.19,1,0.32c0.29,0.12,0.43,0.45,0.31,0.73c-0.12,0.29-0.45,0.43-0.73,0.31
			c-0.27-0.11-0.55-0.2-0.84-0.27c-1.23-0.29-2.26-0.1-3.98,0.26c-0.44,0.09-0.89,0.2-1.33,0.32
			C41.37,28.93,41.32,28.94,41.27,28.94z"/>
	</g>
	<g>
		<path class="st7" d="M41.27,31.82c0.57-0.15,1.04-0.26,1.36-0.33c1.66-0.35,2.85-0.59,4.23-0.26c0.41,0.1,0.73,0.22,0.92,0.29"/>
		<path class="st38" d="M41.27,32.39c-0.25,0-0.47-0.17-0.54-0.42c-0.08-0.3,0.1-0.61,0.4-0.69c0.46-0.13,0.93-0.24,1.39-0.33
			c1.64-0.35,2.94-0.62,4.47-0.26c0.34,0.08,0.68,0.19,1,0.32c0.29,0.12,0.43,0.45,0.31,0.73c-0.12,0.29-0.45,0.43-0.73,0.31
			c-0.27-0.11-0.55-0.2-0.84-0.27c-1.23-0.29-2.26-0.1-3.98,0.26c-0.44,0.09-0.89,0.2-1.33,0.32
			C41.37,32.38,41.32,32.39,41.27,32.39z"/>
	</g>
	<g>
		<path class="st7" d="M58.5,18.03c-0.57-0.15-1.04-0.26-1.36-0.33c-1.66-0.35-2.85-0.59-4.23-0.26c-0.41,0.1-0.73,0.22-0.92,0.29"
			/>
		<path class="st38" d="M58.5,18.59c-0.05,0-0.1-0.01-0.15-0.02c-0.44-0.12-0.89-0.23-1.33-0.32c-1.72-0.36-2.76-0.55-3.98-0.26
			c-0.28,0.07-0.57,0.16-0.84,0.27c-0.29,0.12-0.62-0.02-0.73-0.31c-0.12-0.29,0.02-0.62,0.31-0.73c0.33-0.13,0.66-0.24,1-0.32
			c1.53-0.36,2.83-0.09,4.47,0.26c0.46,0.1,0.93,0.21,1.39,0.33c0.3,0.08,0.48,0.39,0.4,0.69C58.97,18.42,58.75,18.59,58.5,18.59z"
			/>
	</g>
	<g>
		<path class="st7" d="M58.5,21.48c-0.57-0.15-1.04-0.26-1.36-0.33c-1.66-0.35-2.85-0.59-4.23-0.26c-0.41,0.1-0.73,0.22-0.92,0.29"
			/>
		<path class="st38" d="M58.5,22.04c-0.05,0-0.1-0.01-0.15-0.02c-0.44-0.12-0.89-0.23-1.33-0.32c-1.72-0.36-2.76-0.55-3.98-0.26
			c-0.28,0.07-0.57,0.16-0.84,0.27c-0.29,0.12-0.62-0.02-0.73-0.31c-0.12-0.29,0.02-0.62,0.31-0.73c0.33-0.13,0.66-0.24,1-0.32
			c1.53-0.36,2.83-0.09,4.47,0.26c0.46,0.1,0.93,0.21,1.39,0.33c0.3,0.08,0.48,0.39,0.4,0.69C58.97,21.87,58.75,22.04,58.5,22.04z"
			/>
	</g>
	<g>
		<path class="st7" d="M58.5,24.92c-0.57-0.15-1.04-0.26-1.36-0.33c-1.66-0.35-2.85-0.59-4.23-0.26c-0.41,0.1-0.73,0.22-0.92,0.29"
			/>
		<path class="st38" d="M58.5,25.49c-0.05,0-0.1-0.01-0.15-0.02c-0.44-0.12-0.89-0.23-1.33-0.32c-1.72-0.36-2.76-0.55-3.98-0.26
			c-0.28,0.07-0.57,0.16-0.84,0.27c-0.29,0.12-0.62-0.02-0.73-0.31c-0.12-0.29,0.02-0.62,0.31-0.73c0.33-0.13,0.66-0.24,1-0.32
			c1.53-0.36,2.83-0.09,4.47,0.26c0.46,0.1,0.93,0.21,1.39,0.33c0.3,0.08,0.48,0.39,0.4,0.69C58.97,25.32,58.75,25.49,58.5,25.49z"
			/>
	</g>
	<g>
		<path class="st7" d="M58.5,28.37c-0.57-0.15-1.04-0.26-1.36-0.33c-1.66-0.35-2.85-0.59-4.23-0.26c-0.41,0.1-0.73,0.22-0.92,0.29"
			/>
		<path class="st38" d="M58.5,28.94c-0.05,0-0.1-0.01-0.15-0.02c-0.44-0.12-0.89-0.23-1.33-0.32c-1.72-0.36-2.76-0.55-3.98-0.26
			c-0.28,0.07-0.57,0.16-0.84,0.27c-0.29,0.12-0.62-0.02-0.73-0.31c-0.12-0.29,0.02-0.62,0.31-0.73c0.33-0.13,0.66-0.24,1-0.32
			c1.53-0.36,2.83-0.09,4.47,0.26c0.46,0.1,0.93,0.21,1.39,0.33c0.3,0.08,0.48,0.39,0.4,0.69C58.97,28.77,58.75,28.94,58.5,28.94z"
			/>
	</g>
	<g>
		<path class="st7" d="M58.5,31.82c-0.57-0.15-1.04-0.26-1.36-0.33c-1.66-0.35-2.85-0.59-4.23-0.26c-0.41,0.1-0.73,0.22-0.92,0.29"
			/>
		<path class="st38" d="M58.5,32.39c-0.05,0-0.1-0.01-0.15-0.02c-0.44-0.12-0.89-0.23-1.33-0.32c-1.72-0.36-2.76-0.55-3.98-0.26
			c-0.28,0.07-0.57,0.16-0.84,0.27c-0.29,0.12-0.62-0.02-0.73-0.31c-0.12-0.29,0.02-0.62,0.31-0.73c0.33-0.13,0.66-0.24,1-0.32
			c1.53-0.36,2.83-0.09,4.47,0.26c0.46,0.1,0.93,0.21,1.39,0.33c0.3,0.08,0.48,0.39,0.4,0.69C58.97,32.22,58.75,32.39,58.5,32.39z"
			/>
	</g>
	<g>
		<path class="st38" d="M49.87,37.06c-0.32,0-0.58-0.26-0.58-0.58V13.9c0-0.32,0.26-0.58,0.58-0.58c0.32,0,0.58,0.26,0.58,0.58
			v22.58C50.45,36.8,50.19,37.06,49.87,37.06z"/>
	</g>
	<g>
		<path class="st7" d="M53.3,38.88c0.02-0.27,0.21-0.5,0.48-0.56c-0.38,0-0.76,0-1.14,0c-0.2,0-0.4,0-0.6,0c-0.38,0-0.76,0-1.14,0
			c0.27,0.06,0.46,0.29,0.48,0.56c0.02,0.29-0.18,0.56-0.48,0.64h1.14h0.6h1.14C53.48,39.44,53.28,39.17,53.3,38.88z"/>
	</g>
	<g>
		<path class="st7" d="M39.29,26.26c-0.27-0.02-0.5-0.21-0.56-0.48c0,0.38,0,0.76,0,1.14c0,0.2,0,0.4,0,0.6c0,0.38,0,0.76,0,1.14
			c0.06-0.27,0.29-0.46,0.56-0.48c0.29-0.02,0.56,0.18,0.64,0.48v-1.14v-0.6v-1.14C39.85,26.07,39.58,26.27,39.29,26.26z"/>
	</g>
</g>
</svg>
