<?xml version="1.0" encoding="utf-8"?>
<!-- Generator: Adobe Illustrator 24.1.2, SVG Export Plug-In . SVG Version: 6.00 Build 0)  -->
<svg version="1.1" id="Layer_1" xmlns="http://www.w3.org/2000/svg" xmlns:xlink="http://www.w3.org/1999/xlink" x="0px" y="0px"
	 viewBox="0 0 99.74 76.77" style="enable-background:new 0 0 99.74 76.77;" xml:space="preserve">
<style type="text/css">
	.st0{fill:#E8E8E8;}
	.st1{fill:#4FA0F7;}
	.st2{fill:#333333;}
	.st3{fill:#4B4D4F;}
	.st4{fill:#EAEDEF;}
	.st5{fill:#05416D;}
	.st6{fill:#EF2929;}
	.st7{fill:#FFFFFF;}
	.st8{fill:none;stroke:#FFFFFF;stroke-miterlimit:10;}
	.st9{fill:#FFFFFF;stroke:#BCBBBB;stroke-width:0.5387;stroke-miterlimit:10;}
	.st10{fill:none;stroke:#999999;stroke-miterlimit:10;}
	.st11{fill:none;stroke:#BCBBBB;stroke-width:0.5;stroke-miterlimit:10;}
	.st12{fill:#FFFFFF;stroke:#B7B7B7;stroke-width:0.5;stroke-miterlimit:10;}
	.st13{fill:none;stroke:#05416D;stroke-width:0.75;stroke-miterlimit:10;}
	.st14{fill:#26A2ED;}
	.st15{fill:#EA8D28;}
	.st16{fill:#4BC94E;}
	.st17{fill:#EA3228;}
	.st18{fill:#7E3699;}
	.st19{fill:#2349B5;}
	.st20{fill:#EAD228;}
	.st21{fill:#F29CDB;}
	.st22{fill:none;stroke:#4FA0F7;stroke-width:0.75;stroke-linecap:round;stroke-miterlimit:10;}
	.st23{fill:#0D5093;}
	.st24{fill:#1861AA;}
	.st25{fill:#6ECBF4;}
	.st26{fill:#CE2929;}
	.st27{fill:#D5D5D5;}
	.st28{fill:#FFFFFF;stroke:#4FA0F7;stroke-width:1.3269;stroke-miterlimit:10;}
	.st29{fill:none;stroke:#4FA0F7;stroke-width:1.5;stroke-miterlimit:10;}
	.st30{fill:none;stroke:#999999;stroke-width:0.5;stroke-miterlimit:10;}
	.st31{fill:none;stroke:#BCBBBB;stroke-width:0.8902;stroke-miterlimit:10;}
	.st32{fill:none;stroke:#FFFFFF;stroke-linecap:round;stroke-miterlimit:10;}
	.st33{fill:#37B749;}
	.st34{fill:none;stroke:#BCBBBB;stroke-width:0.7101;stroke-miterlimit:10;}
	.st35{fill:none;stroke:#FFFFFF;stroke-width:0.6715;stroke-miterlimit:10;}
	.st36{fill:#477DDD;}
	.st37{fill:#E2AC24;}
	.st38{fill:#999999;}
	.st39{fill:#E22B2B;}
	.st40{fill:none;stroke:#FFFFFF;stroke-width:0.9377;stroke-linecap:round;stroke-miterlimit:10;}
	.st41{opacity:0.8;fill:#FFFFFF;}
	.st42{fill:#1CB750;}
	.st43{fill:#DBDCDD;}
	.st44{fill:#EAECEF;}
	.st45{fill:none;stroke:#999999;stroke-width:0.616;stroke-miterlimit:10;}
	.st46{fill:none;stroke:#999999;stroke-width:0.352;stroke-miterlimit:10;}
	.st47{fill:none;stroke:#999999;stroke-width:0.4796;stroke-miterlimit:10;}
	.st48{fill:none;stroke:#999999;stroke-width:0.6391;stroke-miterlimit:10;}
	.st49{fill:none;stroke:#999999;stroke-width:0.4136;stroke-miterlimit:10;}
	.st50{fill:none;stroke:#BCBBBB;stroke-width:0.5274;stroke-miterlimit:10;}
	.st51{fill:none;stroke:#4FA0F7;stroke-width:2;stroke-miterlimit:10;}
	.st52{fill:#FFFFFF;stroke:#4FA0F7;stroke-miterlimit:10;}
	.st53{fill:none;stroke:#A8A8A8;stroke-miterlimit:10;}
	.st54{fill:#4FA0F7;stroke:#FFFFFF;stroke-width:0.8762;stroke-miterlimit:10;}
	.st55{opacity:0.25;}
	.st56{fill:none;stroke:#999999;stroke-width:1.5;stroke-linecap:round;stroke-miterlimit:10;}
	.st57{fill:none;stroke:#DB1919;stroke-miterlimit:10;}
	.st58{fill:none;stroke:#AAAAAA;stroke-width:1.7924;stroke-linecap:round;stroke-miterlimit:10;}
	.st59{fill:none;stroke:#AAAAAA;stroke-width:1.5152;stroke-miterlimit:10;}
	.st60{fill:#05416D;stroke:#FFFFFF;stroke-width:0.6872;stroke-miterlimit:10;}
	.st61{fill:#EDC82B;}
	.st62{fill:none;stroke:#999999;stroke-width:0.5809;stroke-miterlimit:10;}
	.st63{fill:none;stroke:#999999;stroke-width:0.5404;stroke-miterlimit:10;}
	.st64{fill:none;stroke:#999999;stroke-width:0.7028;stroke-miterlimit:10;}
	.st65{fill:none;stroke:#999999;stroke-width:0.4501;stroke-miterlimit:10;}
	.st66{opacity:0.4;}
	.st67{fill:none;stroke:#4B4D4F;stroke-miterlimit:10;}
	.st68{fill:none;stroke:#A4A4A5;stroke-miterlimit:10;}
	.st69{fill:none;stroke:#CCCCCC;stroke-width:5;stroke-linecap:round;stroke-miterlimit:10;}
	.st70{fill:#C9C9C9;}
	.st71{font-family:'Avenir-Medium';}
	.st72{font-size:10.3696px;}
	.st73{fill:none;stroke:#999999;stroke-width:5;stroke-miterlimit:10;}
	.st74{fill:none;stroke:#999999;stroke-width:5;stroke-linecap:round;stroke-miterlimit:10;}
	.st75{fill:#FFFFFF;stroke:#999999;stroke-width:4.8441;stroke-linecap:round;stroke-miterlimit:10;}
	.st76{fill:#FFFFFF;stroke:#999999;stroke-width:5;stroke-linecap:round;stroke-miterlimit:10;}
	.st77{opacity:0.15;}
	.st78{opacity:0.15;fill:#477DDD;}
	.st79{opacity:0.15;fill:#37B749;}
	.st80{opacity:0.25;fill:#37B749;}
	.st81{opacity:0.25;fill:#477DDD;}
	.st82{fill:none;stroke:#4FA0F7;stroke-width:5;stroke-miterlimit:10;}
	.st83{fill:none;stroke:#DB1919;stroke-width:5;stroke-miterlimit:10;}
	.st84{fill:none;stroke:#4FA0F7;stroke-width:5;stroke-linecap:round;stroke-miterlimit:10;}
	.st85{fill:none;stroke:#1CB750;stroke-width:5;stroke-miterlimit:10;}
	.st86{fill:none;stroke:#1CB750;stroke-width:5;stroke-linecap:round;stroke-miterlimit:10;}
	.st87{fill:#DB1919;}
	.st88{fill:none;stroke:#05416D;stroke-width:5;stroke-linecap:round;stroke-miterlimit:10;}
	.st89{fill:none;stroke:#05416D;stroke-width:1.2656;stroke-linecap:round;stroke-miterlimit:10;}
	.st90{fill:none;stroke:#EDC82B;stroke-width:5;stroke-miterlimit:10;}
	.st91{fill:none;stroke:#EDC82B;stroke-width:5;stroke-linecap:round;stroke-miterlimit:10;}
	.st92{fill:none;stroke:#797A7A;stroke-width:0.25;stroke-miterlimit:10;}
	.st93{fill:none;stroke:#FFFFFF;stroke-width:0.9556;stroke-linecap:round;stroke-miterlimit:10;}
	.st94{fill:#E2BD23;}
	.st95{fill:#E03624;}
	.st96{fill:none;stroke:#4FA0F7;stroke-width:0.75;stroke-miterlimit:10;}
	.st97{fill:none;stroke:#4FA0F7;stroke-width:0.8498;stroke-miterlimit:10;}
	.st98{fill:none;stroke:#4FA0F7;stroke-width:0.6693;stroke-miterlimit:10;}
	.st99{fill:#E2E2E2;}
	.st100{fill:none;stroke:#4FA0F7;stroke-width:0.5;stroke-miterlimit:10;}
	.st101{opacity:0.1;}
	.st102{fill:none;stroke:#FFFFFF;stroke-width:3;stroke-linecap:round;stroke-miterlimit:10;}
	.st103{fill:none;stroke:#4FA0F7;stroke-width:1.4167;stroke-miterlimit:10;}
	.st104{fill:none;stroke:#FFFFFF;stroke-width:0.8019;stroke-linecap:round;stroke-miterlimit:10;}
	.st105{fill:none;stroke:#FFFFFF;stroke-width:0.649;stroke-linecap:round;stroke-miterlimit:10;}
	.st106{fill:none;stroke:#4FA0F7;stroke-width:0.25;stroke-miterlimit:10;}
	.st107{fill:none;stroke:#DDDDDD;stroke-width:0.75;stroke-miterlimit:10;}
	.st108{fill:#DDDDDD;}
	.st109{fill:#777777;}
	.st110{fill:none;stroke:#E2AC24;stroke-width:0.5;stroke-miterlimit:10;}
	.st111{fill:none;stroke:#3DB54A;stroke-width:0.5;stroke-miterlimit:10;}
	.st112{fill:none;stroke:#477DDD;stroke-width:0.5;stroke-miterlimit:10;}
	.st113{fill:none;stroke:#E22B2B;stroke-width:0.5;stroke-miterlimit:10;}
</style>
<text transform="matrix(1 0 0 1 32.2875 58.5296)" class="st38 st71 st72">Degree</text>
<g>
	<path class="st38" d="M57.68,13.86c0.7,0,1.27,0.57,1.27,1.27v19.84c0,0.7-0.57,1.27-1.27,1.27H38.83c-0.7,0-1.27-0.57-1.27-1.27
		V15.13c0-0.7,0.57-1.27,1.27-1.27H57.68 M57.68,12.7H38.83c-1.34,0-2.43,1.09-2.43,2.43v19.84c0,1.34,1.09,2.43,2.43,2.43h18.85
		c1.34,0,2.43-1.09,2.43-2.43V15.13C60.1,13.79,59.02,12.7,57.68,12.7L57.68,12.7z"/>
	<g>
		<path class="st7" d="M60.87,32.23h-4.15c-0.69,0-1.25,0.47-1.25,1.06v6.15c0,0.25,0.34,0.39,0.58,0.24l2.27-1.46
			c0.28-0.18,0.68-0.18,0.97,0l2.27,1.46c0.24,0.15,0.58,0.01,0.58-0.24v-6.15C62.12,32.7,61.56,32.23,60.87,32.23z"/>
		<path class="st38" d="M60.87,33.39c0.04,0,0.07,0.01,0.09,0.01v4.51l-1.05-0.68c-0.33-0.21-0.71-0.32-1.11-0.32
			c-0.4,0-0.79,0.11-1.11,0.32l-1.05,0.68V33.4c0.02-0.01,0.05-0.01,0.09-0.01H60.87 M60.87,32.23h-4.15
			c-0.69,0-1.25,0.47-1.25,1.06v6.15c0,0.18,0.17,0.3,0.36,0.3c0.07,0,0.15-0.02,0.22-0.06l2.27-1.46c0.14-0.09,0.31-0.14,0.48-0.14
			c0.17,0,0.34,0.05,0.48,0.14l2.27,1.46c0.07,0.04,0.14,0.06,0.22,0.06c0.19,0,0.36-0.12,0.36-0.3v-6.15
			C62.12,32.7,61.56,32.23,60.87,32.23L60.87,32.23z"/>
	</g>
	<path class="st38" d="M55.74,18.21H40.76c-0.32,0-0.58-0.26-0.58-0.58s0.26-0.58,0.58-0.58h14.98c0.32,0,0.58,0.26,0.58,0.58
		S56.06,18.21,55.74,18.21z"/>
	<path class="st38" d="M55.74,22.76H40.76c-0.32,0-0.58-0.26-0.58-0.58s0.26-0.58,0.58-0.58h14.98c0.32,0,0.58,0.26,0.58,0.58
		S56.06,22.76,55.74,22.76z"/>
	<path class="st38" d="M55.74,27.32H40.76c-0.32,0-0.58-0.26-0.58-0.58s0.26-0.58,0.58-0.58h14.98c0.32,0,0.58,0.26,0.58,0.58
		S56.06,27.32,55.74,27.32z"/>
	<path class="st38" d="M55.74,31.87H40.76c-0.32,0-0.58-0.26-0.58-0.58s0.26-0.58,0.58-0.58h14.98c0.32,0,0.58,0.26,0.58,0.58
		S56.06,31.87,55.74,31.87z"/>
	<g>
		<path class="st7" d="M36.93,23.98c-0.27-0.02-0.5-0.21-0.56-0.48c0,0.38,0,0.76,0,1.14c0,0.2,0,0.4,0,0.6c0,0.38,0,0.76,0,1.14
			c0.06-0.27,0.29-0.46,0.56-0.48c0.29-0.02,0.56,0.18,0.64,0.48v-1.14v-0.6v-1.14C37.49,23.79,37.22,23.99,36.93,23.98z"/>
	</g>
	<g>
		<path class="st7" d="M46.37,31.25c0.02-0.27,0.21-0.5,0.48-0.56c-0.38,0-0.76,0-1.14,0c-0.2,0-0.4,0-0.6,0c-0.38,0-0.76,0-1.14,0
			c0.27,0.06,0.46,0.29,0.48,0.56c0.02,0.29-0.18,0.56-0.48,0.64h1.14h0.6h1.14C46.56,31.82,46.35,31.54,46.37,31.25z"/>
	</g>
	<g>
		<circle class="st7" cx="58.8" cy="30.34" r="4.57"/>
		<path class="st38" d="M58.8,26.93c1.88,0,3.4,1.53,3.4,3.4c0,1.88-1.53,3.4-3.4,3.4c-1.88,0-3.4-1.53-3.4-3.4
			C55.39,28.46,56.92,26.93,58.8,26.93 M58.8,25.77c-2.52,0-4.57,2.04-4.57,4.57c0,2.52,2.04,4.57,4.57,4.57
			c2.52,0,4.57-2.04,4.57-4.57C63.36,27.81,61.32,25.77,58.8,25.77L58.8,25.77z"/>
	</g>
</g>
<rect x="0" class="st41" width="99.74" height="76.66"/>
<g>
	<circle class="st42" cx="89.68" cy="10.57" r="4.93"/>
	<polyline class="st105" points="86.85,10.69 88.66,12.5 92.51,8.64 	"/>
</g>
</svg>
